<mxfile host="app.diagrams.net" agent="Mozilla/5.0 (Windows NT 10.0; Win64; x64) AppleWebKit/537.36 (KHTML, like Gecko) Chrome/135.0.0.0 Safari/537.36" version="26.2.14">
  <diagram id="prtHgNgQTEPvFCAcTncT" name="Page-1">
    <mxGraphModel dx="1722" dy="963" grid="1" gridSize="10" guides="1" tooltips="1" connect="1" arrows="1" fold="1" page="1" pageScale="1" pageWidth="1169" pageHeight="827" math="0" shadow="0">
      <root>
        <mxCell id="0" />
        <mxCell id="1" parent="0" />
        <mxCell id="TEjZXbB8bnFQElMZNGLr-42" style="edgeStyle=orthogonalEdgeStyle;rounded=0;orthogonalLoop=1;jettySize=auto;html=1;exitX=1;exitY=0.5;exitDx=0;exitDy=0;entryX=0;entryY=0.5;entryDx=0;entryDy=0;" edge="1" parent="1" source="TEjZXbB8bnFQElMZNGLr-18" target="TEjZXbB8bnFQElMZNGLr-41">
          <mxGeometry relative="1" as="geometry" />
        </mxCell>
        <mxCell id="TEjZXbB8bnFQElMZNGLr-18" value="" style="rounded=1;whiteSpace=wrap;html=1;" vertex="1" parent="1">
          <mxGeometry x="680" y="80" width="120" height="270" as="geometry" />
        </mxCell>
        <mxCell id="TEjZXbB8bnFQElMZNGLr-30" style="edgeStyle=orthogonalEdgeStyle;rounded=0;orthogonalLoop=1;jettySize=auto;html=1;exitX=1;exitY=0.5;exitDx=0;exitDy=0;entryX=0;entryY=0.5;entryDx=0;entryDy=0;" edge="1" parent="1" source="TEjZXbB8bnFQElMZNGLr-14" target="TEjZXbB8bnFQElMZNGLr-18">
          <mxGeometry relative="1" as="geometry" />
        </mxCell>
        <mxCell id="TEjZXbB8bnFQElMZNGLr-14" value="" style="rounded=1;whiteSpace=wrap;html=1;" vertex="1" parent="1">
          <mxGeometry x="520" y="80" width="120" height="270" as="geometry" />
        </mxCell>
        <mxCell id="TEjZXbB8bnFQElMZNGLr-28" style="edgeStyle=orthogonalEdgeStyle;rounded=0;orthogonalLoop=1;jettySize=auto;html=1;exitX=1;exitY=0.5;exitDx=0;exitDy=0;entryX=0;entryY=0.5;entryDx=0;entryDy=0;" edge="1" parent="1" source="TEjZXbB8bnFQElMZNGLr-1" target="TEjZXbB8bnFQElMZNGLr-13">
          <mxGeometry relative="1" as="geometry" />
        </mxCell>
        <mxCell id="TEjZXbB8bnFQElMZNGLr-1" value="" style="rounded=1;whiteSpace=wrap;html=1;" vertex="1" parent="1">
          <mxGeometry x="200" y="80" width="120" height="270" as="geometry" />
        </mxCell>
        <mxCell id="TEjZXbB8bnFQElMZNGLr-29" style="edgeStyle=orthogonalEdgeStyle;rounded=0;orthogonalLoop=1;jettySize=auto;html=1;exitX=1;exitY=0.5;exitDx=0;exitDy=0;entryX=0;entryY=0.5;entryDx=0;entryDy=0;" edge="1" parent="1" source="TEjZXbB8bnFQElMZNGLr-13" target="TEjZXbB8bnFQElMZNGLr-14">
          <mxGeometry relative="1" as="geometry" />
        </mxCell>
        <mxCell id="TEjZXbB8bnFQElMZNGLr-13" value="" style="rounded=1;whiteSpace=wrap;html=1;" vertex="1" parent="1">
          <mxGeometry x="360" y="80" width="120" height="270" as="geometry" />
        </mxCell>
        <mxCell id="TEjZXbB8bnFQElMZNGLr-40" style="edgeStyle=orthogonalEdgeStyle;rounded=0;orthogonalLoop=1;jettySize=auto;html=1;exitX=1;exitY=0.5;exitDx=0;exitDy=0;entryX=0;entryY=0.5;entryDx=0;entryDy=0;" edge="1" parent="1" source="TEjZXbB8bnFQElMZNGLr-2" target="TEjZXbB8bnFQElMZNGLr-1">
          <mxGeometry relative="1" as="geometry" />
        </mxCell>
        <mxCell id="TEjZXbB8bnFQElMZNGLr-2" value="Video Feed" style="rounded=0;whiteSpace=wrap;html=1;" vertex="1" parent="1">
          <mxGeometry x="80" y="197.5" width="80" height="35" as="geometry" />
        </mxCell>
        <mxCell id="TEjZXbB8bnFQElMZNGLr-17" style="edgeStyle=orthogonalEdgeStyle;rounded=0;orthogonalLoop=1;jettySize=auto;html=1;exitX=0.5;exitY=1;exitDx=0;exitDy=0;entryX=0.5;entryY=0;entryDx=0;entryDy=0;" edge="1" parent="1" source="TEjZXbB8bnFQElMZNGLr-3" target="TEjZXbB8bnFQElMZNGLr-4">
          <mxGeometry relative="1" as="geometry" />
        </mxCell>
        <mxCell id="TEjZXbB8bnFQElMZNGLr-27" value="Multi-threading" style="edgeLabel;html=1;align=center;verticalAlign=middle;resizable=0;points=[];" vertex="1" connectable="0" parent="TEjZXbB8bnFQElMZNGLr-17">
          <mxGeometry x="-0.15" relative="1" as="geometry">
            <mxPoint as="offset" />
          </mxGeometry>
        </mxCell>
        <mxCell id="TEjZXbB8bnFQElMZNGLr-3" value="Landmark Detection" style="rounded=0;whiteSpace=wrap;html=1;" vertex="1" parent="1">
          <mxGeometry x="220" y="180" width="80" height="40" as="geometry" />
        </mxCell>
        <mxCell id="TEjZXbB8bnFQElMZNGLr-4" value="Angle Computation" style="rounded=0;whiteSpace=wrap;html=1;" vertex="1" parent="1">
          <mxGeometry x="220" y="260" width="80" height="40" as="geometry" />
        </mxCell>
        <mxCell id="TEjZXbB8bnFQElMZNGLr-15" style="edgeStyle=orthogonalEdgeStyle;rounded=0;orthogonalLoop=1;jettySize=auto;html=1;exitX=0.5;exitY=1;exitDx=0;exitDy=0;entryX=0.5;entryY=0;entryDx=0;entryDy=0;" edge="1" parent="1" source="TEjZXbB8bnFQElMZNGLr-5" target="TEjZXbB8bnFQElMZNGLr-6">
          <mxGeometry relative="1" as="geometry" />
        </mxCell>
        <mxCell id="TEjZXbB8bnFQElMZNGLr-5" value="Buffer Angles" style="rounded=0;whiteSpace=wrap;html=1;" vertex="1" parent="1">
          <mxGeometry x="380" y="120" width="80" height="40" as="geometry" />
        </mxCell>
        <mxCell id="TEjZXbB8bnFQElMZNGLr-16" style="edgeStyle=orthogonalEdgeStyle;rounded=0;orthogonalLoop=1;jettySize=auto;html=1;exitX=0.5;exitY=1;exitDx=0;exitDy=0;entryX=0.5;entryY=0;entryDx=0;entryDy=0;" edge="1" parent="1" source="TEjZXbB8bnFQElMZNGLr-6" target="TEjZXbB8bnFQElMZNGLr-7">
          <mxGeometry relative="1" as="geometry" />
        </mxCell>
        <mxCell id="TEjZXbB8bnFQElMZNGLr-6" value="Compute Features" style="rounded=0;whiteSpace=wrap;html=1;" vertex="1" parent="1">
          <mxGeometry x="380" y="180" width="80" height="40" as="geometry" />
        </mxCell>
        <mxCell id="TEjZXbB8bnFQElMZNGLr-7" value="Normalise Features" style="rounded=0;whiteSpace=wrap;html=1;" vertex="1" parent="1">
          <mxGeometry x="380" y="240" width="80" height="40" as="geometry" />
        </mxCell>
        <mxCell id="TEjZXbB8bnFQElMZNGLr-10" style="edgeStyle=orthogonalEdgeStyle;rounded=0;orthogonalLoop=1;jettySize=auto;html=1;exitX=0.5;exitY=1;exitDx=0;exitDy=0;entryX=0.5;entryY=0;entryDx=0;entryDy=0;" edge="1" parent="1" source="TEjZXbB8bnFQElMZNGLr-8" target="TEjZXbB8bnFQElMZNGLr-9">
          <mxGeometry relative="1" as="geometry" />
        </mxCell>
        <mxCell id="TEjZXbB8bnFQElMZNGLr-8" value="Preprocessed Input" style="rounded=0;whiteSpace=wrap;html=1;" vertex="1" parent="1">
          <mxGeometry x="540" y="120" width="80" height="40" as="geometry" />
        </mxCell>
        <mxCell id="TEjZXbB8bnFQElMZNGLr-32" style="edgeStyle=orthogonalEdgeStyle;rounded=0;orthogonalLoop=1;jettySize=auto;html=1;exitX=0.5;exitY=1;exitDx=0;exitDy=0;entryX=0.5;entryY=0;entryDx=0;entryDy=0;" edge="1" parent="1" source="TEjZXbB8bnFQElMZNGLr-9" target="TEjZXbB8bnFQElMZNGLr-31">
          <mxGeometry relative="1" as="geometry" />
        </mxCell>
        <mxCell id="TEjZXbB8bnFQElMZNGLr-9" value="Initialise Hidden State" style="rounded=0;whiteSpace=wrap;html=1;" vertex="1" parent="1">
          <mxGeometry x="540" y="180" width="80" height="40" as="geometry" />
        </mxCell>
        <mxCell id="TEjZXbB8bnFQElMZNGLr-39" style="edgeStyle=orthogonalEdgeStyle;rounded=0;orthogonalLoop=1;jettySize=auto;html=1;exitX=0.5;exitY=1;exitDx=0;exitDy=0;entryX=0.5;entryY=0;entryDx=0;entryDy=0;" edge="1" parent="1" source="TEjZXbB8bnFQElMZNGLr-11" target="TEjZXbB8bnFQElMZNGLr-38">
          <mxGeometry relative="1" as="geometry" />
        </mxCell>
        <mxCell id="TEjZXbB8bnFQElMZNGLr-11" value="Generate Form Insights" style="rounded=0;whiteSpace=wrap;html=1;" vertex="1" parent="1">
          <mxGeometry x="700" y="180" width="80" height="40" as="geometry" />
        </mxCell>
        <mxCell id="TEjZXbB8bnFQElMZNGLr-19" style="edgeStyle=orthogonalEdgeStyle;rounded=0;orthogonalLoop=1;jettySize=auto;html=1;exitX=0.5;exitY=1;exitDx=0;exitDy=0;entryX=0.5;entryY=0;entryDx=0;entryDy=0;" edge="1" parent="1" source="TEjZXbB8bnFQElMZNGLr-12" target="TEjZXbB8bnFQElMZNGLr-11">
          <mxGeometry relative="1" as="geometry" />
        </mxCell>
        <mxCell id="TEjZXbB8bnFQElMZNGLr-12" value="Parse Outputs" style="rounded=0;whiteSpace=wrap;html=1;" vertex="1" parent="1">
          <mxGeometry x="700" y="120" width="80" height="40" as="geometry" />
        </mxCell>
        <mxCell id="TEjZXbB8bnFQElMZNGLr-20" value="Pose Estimation" style="text;html=1;align=center;verticalAlign=middle;whiteSpace=wrap;rounded=0;" vertex="1" parent="1">
          <mxGeometry x="210" y="85" width="100" height="30" as="geometry" />
        </mxCell>
        <mxCell id="TEjZXbB8bnFQElMZNGLr-22" value="Data Preprocessing" style="text;html=1;align=center;verticalAlign=middle;whiteSpace=wrap;rounded=0;" vertex="1" parent="1">
          <mxGeometry x="365" y="85" width="110" height="30" as="geometry" />
        </mxCell>
        <mxCell id="TEjZXbB8bnFQElMZNGLr-23" value="LSTM Prediction" style="text;html=1;align=center;verticalAlign=middle;whiteSpace=wrap;rounded=0;" vertex="1" parent="1">
          <mxGeometry x="525" y="85" width="110" height="30" as="geometry" />
        </mxCell>
        <mxCell id="TEjZXbB8bnFQElMZNGLr-24" value="Output Feedback" style="text;html=1;align=center;verticalAlign=middle;whiteSpace=wrap;rounded=0;" vertex="1" parent="1">
          <mxGeometry x="685" y="85" width="110" height="30" as="geometry" />
        </mxCell>
        <mxCell id="TEjZXbB8bnFQElMZNGLr-35" style="edgeStyle=orthogonalEdgeStyle;rounded=0;orthogonalLoop=1;jettySize=auto;html=1;exitX=0.5;exitY=1;exitDx=0;exitDy=0;entryX=0.5;entryY=0;entryDx=0;entryDy=0;" edge="1" parent="1" source="TEjZXbB8bnFQElMZNGLr-31" target="TEjZXbB8bnFQElMZNGLr-33">
          <mxGeometry relative="1" as="geometry" />
        </mxCell>
        <mxCell id="TEjZXbB8bnFQElMZNGLr-31" value="LSTM Layer Processing" style="rounded=0;whiteSpace=wrap;html=1;" vertex="1" parent="1">
          <mxGeometry x="540" y="240" width="80" height="40" as="geometry" />
        </mxCell>
        <mxCell id="TEjZXbB8bnFQElMZNGLr-33" value="Fatigue Score Prediction" style="rounded=0;whiteSpace=wrap;html=1;" vertex="1" parent="1">
          <mxGeometry x="540" y="300" width="80" height="40" as="geometry" />
        </mxCell>
        <mxCell id="TEjZXbB8bnFQElMZNGLr-37" style="edgeStyle=orthogonalEdgeStyle;rounded=0;orthogonalLoop=1;jettySize=auto;html=1;exitX=0.5;exitY=1;exitDx=0;exitDy=0;entryX=0.5;entryY=0;entryDx=0;entryDy=0;" edge="1" parent="1" source="TEjZXbB8bnFQElMZNGLr-36" target="TEjZXbB8bnFQElMZNGLr-3">
          <mxGeometry relative="1" as="geometry" />
        </mxCell>
        <mxCell id="TEjZXbB8bnFQElMZNGLr-36" value="MediaPipe Inference" style="rounded=0;whiteSpace=wrap;html=1;" vertex="1" parent="1">
          <mxGeometry x="220" y="120" width="80" height="40" as="geometry" />
        </mxCell>
        <mxCell id="TEjZXbB8bnFQElMZNGLr-44" style="edgeStyle=orthogonalEdgeStyle;rounded=0;orthogonalLoop=1;jettySize=auto;html=1;exitX=0.5;exitY=1;exitDx=0;exitDy=0;entryX=0.5;entryY=0;entryDx=0;entryDy=0;" edge="1" parent="1" source="TEjZXbB8bnFQElMZNGLr-38" target="TEjZXbB8bnFQElMZNGLr-43">
          <mxGeometry relative="1" as="geometry" />
        </mxCell>
        <mxCell id="TEjZXbB8bnFQElMZNGLr-38" value="Render GUI" style="rounded=0;whiteSpace=wrap;html=1;" vertex="1" parent="1">
          <mxGeometry x="700" y="240" width="80" height="40" as="geometry" />
        </mxCell>
        <mxCell id="TEjZXbB8bnFQElMZNGLr-41" value="Fatigue Score and Form Insights" style="rounded=0;whiteSpace=wrap;html=1;" vertex="1" parent="1">
          <mxGeometry x="840" y="189.38" width="80" height="51.25" as="geometry" />
        </mxCell>
        <mxCell id="TEjZXbB8bnFQElMZNGLr-43" value="Display Outputs" style="rounded=0;whiteSpace=wrap;html=1;" vertex="1" parent="1">
          <mxGeometry x="700" y="300" width="80" height="40" as="geometry" />
        </mxCell>
      </root>
    </mxGraphModel>
  </diagram>
</mxfile>
